<?xml version="1.0" encoding="UTF-8"?>
<svg id="Layer_2" data-name="Layer 2" xmlns="http://www.w3.org/2000/svg" viewBox="0 0 509.56 509.57">
  <defs>
    <style>
      .cls-1 {
        fill: #0098d9;
      }
    </style>
  </defs>
  <g id="Layer_1-2" data-name="Layer 1">
    <path class="cls-1" d="M265.08.26c-3.41-.17-6.84-.26-10.29-.26s-6.89.09-10.3.26C108.76,5.69,0,117.75,0,254.78s114.3,254.78,254.78,254.78,254.78-114.3,254.78-254.78S400.8,5.69,265.08.26ZM246.65,49.3c-3.31,9.84-8.47,18.83-15.2,26.46-2.28,2.61-4.73,5.13-7.42,7.41l-43.35,43.35c-40.74,40.74-40.74,107.07,0,147.97,20.61,20.62,47.34,30.72,74.07,30.72s53.53-10.1,74.15-30.72c40.74-40.9,40.74-107.23,0-147.97l-7.42-7.42-35.77-35.69c-2.77-2.44-5.38-5.05-7.82-7.82-6.57-7.61-11.66-16.54-14.94-26.3,79.7,4.28,143.27,70.27,143.27,151.02s-67.93,151.44-151.44,151.44-151.44-67.93-151.44-151.44S166.93,53.57,246.65,49.3ZM254.78,460.68c-113.53,0-205.89-92.36-205.89-205.89,0-16.57,2.02-32.66,5.73-48.1,3.37,107.53,91.83,193.97,200.16,193.97s196.77-86.43,200.16-193.94c3.71,15.43,5.73,31.52,5.73,48.07,0,113.53-92.36,205.89-205.89,205.89Z"/>
  </g>
</svg>
