<?xml version="1.0" encoding="UTF-8"?>
<svg id="Layer_2" data-name="Layer 2" xmlns="http://www.w3.org/2000/svg" viewBox="0 0 783.75 166.52">
  <defs>
    <style>
      .cls-1 {
        fill: #0098d9;
      }

      .cls-2 {
        fill: #526975;
      }
    </style>
  </defs>
  <g id="Layer_1-2" data-name="Layer 1">
    <g>
      <path class="cls-1" d="M86.62.09c-1.11-.06-2.24-.09-3.36-.09s-2.25.03-3.36.09C35.54,1.86,0,38.48,0,83.26s37.35,83.26,83.26,83.26,83.26-37.35,83.26-83.26S130.97,1.86,86.62.09ZM80.6,16.11c-1.08,3.21-2.77,6.15-4.97,8.65-.75.85-1.54,1.68-2.42,2.42l-14.17,14.17c-13.31,13.31-13.31,34.99,0,48.35,6.74,6.74,15.47,10.04,24.2,10.04s17.49-3.3,24.23-10.04c13.31-13.37,13.31-35.04,0-48.35l-2.42-2.42-11.69-11.66c-.91-.8-1.76-1.65-2.56-2.56-2.15-2.49-3.81-5.4-4.88-8.59,26.04,1.4,46.82,22.96,46.82,49.35s-22.2,49.49-49.49,49.49-49.49-22.2-49.49-49.49,20.78-47.96,46.83-49.35ZM83.26,150.54c-37.1,0-67.28-30.18-67.28-67.28,0-5.41.66-10.67,1.87-15.72,1.1,35.14,30.01,63.38,65.41,63.38s64.3-28.24,65.41-63.37c1.21,5.04,1.87,10.3,1.87,15.71,0,37.1-30.18,67.28-67.28,67.28Z"/>
      <g>
        <path class="cls-2" d="M254.75,118.06c3.93,0,7.11-.43,9.56-1.3,4.65-1.66,6.97-4.74,6.97-9.24,0-2.63-1.15-4.66-3.46-6.1-2.3-1.41-5.92-2.65-10.86-3.73l-8.43-1.89c-8.28-1.87-14.01-3.91-17.18-6.1-5.37-3.67-8.05-9.41-8.05-17.23,0-7.13,2.59-13.05,7.78-17.78,5.18-4.72,12.8-7.08,22.85-7.08,8.39,0,15.55,2.23,21.47,6.67,5.93,4.45,9.03,10.91,9.32,19.37h-15.99c-.29-4.79-2.38-8.19-6.27-10.21-2.59-1.33-5.82-2-9.67-2-4.28,0-7.71.87-10.27,2.59-2.56,1.73-3.84,4.14-3.84,7.24,0,2.85,1.26,4.97,3.78,6.37,1.62.94,5.08,2.04,10.37,3.3l13.72,3.3c6.01,1.44,10.55,3.37,13.62,5.78,4.75,3.75,7.13,9.17,7.13,16.26s-2.78,13.32-8.35,18.13c-5.56,4.81-13.42,7.21-23.58,7.21s-18.53-2.37-24.47-7.1c-5.94-4.74-8.91-11.24-8.91-19.53h15.88c.5,3.64,1.49,6.36,2.97,8.16,2.7,3.28,7.33,4.92,13.88,4.92Z"/>
        <path class="cls-2" d="M348.28,98.88v-48.95h16.91v48.95c0,8.46-1.32,15.05-3.94,19.77-4.9,8.65-14.25,12.97-28.04,12.97s-23.16-4.32-28.09-12.97c-2.63-4.72-3.94-11.31-3.94-19.77v-48.95h16.91v48.95c0,5.47.65,9.47,1.95,11.99,2.02,4.47,6.41,6.7,13.18,6.7s11.11-2.23,13.13-6.7c1.3-2.52,1.95-6.52,1.95-11.99Z"/>
        <path class="cls-2" d="M416.69,98.34h-17.18v31.23h-16.26V49.93h39.06c5.58.11,9.88.79,12.89,2.05,3.01,1.26,5.55,3.12,7.64,5.56,1.73,2.02,3.09,4.25,4.1,6.7,1.01,2.45,1.52,5.24,1.52,8.38,0,3.78-.95,7.5-2.86,11.16s-5.06,6.24-9.45,7.75c3.67,1.48,6.28,3.58,7.81,6.29,1.53,2.72,2.3,6.87,2.3,12.45v5.35c0,3.64.14,6.1.43,7.4.43,2.05,1.44,3.57,3.03,4.54v2h-18.32c-.5-1.77-.86-3.19-1.08-4.27-.43-2.23-.67-4.52-.7-6.86l-.11-7.4c-.07-5.08-1-8.47-2.78-10.16-1.78-1.69-5.12-2.54-10.02-2.54ZM426.8,83.86c3.31-1.51,4.97-4.5,4.97-8.97,0-4.83-1.6-8.07-4.81-9.72-1.81-.93-4.51-1.41-8.11-1.41h-19.34v21.4h18.85c3.75,0,6.56-.43,8.43-1.3Z"/>
        <path class="cls-2" d="M540.77,49.93h16.91l-22.42,79.63h-15.88l-9.62-46.57-2.81-15.4-2.81,15.4-9.62,46.57h-15.46l-22.58-79.63h17.67l10.54,45.6,2.27,12.7,2.32-12.43,8.97-45.86h17.56l9.45,45.6,2.43,12.7,2.43-12.21,10.64-46.08Z"/>
        <path class="cls-2" d="M609.97,113.19h-29.34l-5.51,16.37h-17.4l28.42-79.63h18.8l28.2,79.63h-18.05l-5.13-16.37ZM605.32,99.47l-9.94-31.33-10.26,31.33h20.2Z"/>
        <path class="cls-2" d="M672.61,118.06c3.93,0,7.11-.43,9.56-1.3,4.65-1.66,6.97-4.74,6.97-9.24,0-2.63-1.15-4.66-3.46-6.1-2.3-1.41-5.92-2.65-10.86-3.73l-8.43-1.89c-8.28-1.87-14.01-3.91-17.18-6.1-5.37-3.67-8.05-9.41-8.05-17.23,0-7.13,2.59-13.05,7.78-17.78,5.18-4.72,12.8-7.08,22.85-7.08,8.39,0,15.55,2.23,21.47,6.67,5.93,4.45,9.03,10.91,9.32,19.37h-15.99c-.29-4.79-2.38-8.19-6.27-10.21-2.59-1.33-5.82-2-9.67-2-4.28,0-7.71.87-10.27,2.59-2.56,1.73-3.84,4.14-3.84,7.24,0,2.85,1.26,4.97,3.78,6.37,1.62.94,5.08,2.04,10.37,3.3l13.72,3.3c6.01,1.44,10.55,3.37,13.62,5.78,4.75,3.75,7.13,9.17,7.13,16.26s-2.78,13.32-8.35,18.13c-5.56,4.81-13.42,7.21-23.58,7.21s-18.53-2.37-24.47-7.1c-5.94-4.74-8.91-11.24-8.91-19.53h15.88c.5,3.64,1.49,6.36,2.97,8.16,2.7,3.28,7.33,4.92,13.88,4.92Z"/>
        <path class="cls-2" d="M767.21,129.56v-35.55h-31.12v35.55h-16.48V49.93h16.48v30.36h31.12v-30.36h16.53v79.63h-16.53Z"/>
      </g>
    </g>
  </g>
</svg>