<?xml version="1.0" encoding="UTF-8"?>
<svg id="Layer_2" data-name="Layer 2" xmlns="http://www.w3.org/2000/svg" viewBox="0 0 577.38 472.25">
  <defs>
    <style>
      .cls-1 {
        fill: #0098d9;
      }

      .cls-2 {
        fill: #526975;
      }
    </style>
  </defs>
  <g id="Layer_1-2" data-name="Layer 1">
    <g>
      <path class="cls-1" d="M294.97.16c-2.08-.11-4.17-.16-6.28-.16s-4.2.05-6.28.16c-82.74,3.31-149.04,71.62-149.04,155.16s69.68,155.32,155.32,155.32,155.32-69.68,155.32-155.32S377.71,3.47,294.97.16ZM283.73,30.05c-2.02,6-5.16,11.48-9.26,16.13-1.39,1.59-2.88,3.13-4.52,4.52l-26.43,26.43c-24.84,24.84-24.84,65.27,0,90.21,12.57,12.57,28.86,18.73,45.15,18.73s32.64-6.16,45.2-18.73c24.84-24.94,24.84-65.37,0-90.21l-4.52-4.52-21.81-21.76c-1.69-1.49-3.28-3.08-4.77-4.77-4-4.64-7.11-10.08-9.11-16.03,48.58,2.61,87.34,42.84,87.34,92.06s-41.41,92.32-92.32,92.32-92.32-41.41-92.32-92.32,38.76-89.46,87.36-92.07ZM288.69,280.84c-69.21,0-125.52-56.3-125.52-125.52,0-10.1,1.23-19.91,3.49-29.32,2.06,65.55,55.98,118.25,122.02,118.25s119.95-52.69,122.02-118.23c2.26,9.41,3.49,19.21,3.49,29.31,0,69.21-56.3,125.52-125.51,125.52Z"/>
      <g>
        <path class="cls-2" d="M33.65,458.32c4.03,0,7.31-.44,9.83-1.33,4.78-1.7,7.16-4.87,7.16-9.5,0-2.7-1.18-4.79-3.55-6.27-2.37-1.45-6.09-2.72-11.16-3.83l-8.67-1.95c-8.51-1.92-14.4-4.01-17.66-6.27-5.52-3.77-8.28-9.68-8.28-17.71,0-7.33,2.66-13.42,8-18.27,5.33-4.85,13.16-7.28,23.49-7.28,8.63,0,15.98,2.29,22.07,6.86,6.09,4.57,9.28,11.21,9.58,19.91h-16.44c-.3-4.92-2.44-8.42-6.44-10.49-2.66-1.37-5.98-2.06-9.94-2.06-4.4,0-7.92.89-10.55,2.66-2.63,1.78-3.94,4.26-3.94,7.44,0,2.93,1.3,5.11,3.89,6.55,1.67.97,5.22,2.09,10.66,3.39l14.11,3.39c6.18,1.48,10.85,3.46,13.99,5.94,4.88,3.85,7.33,9.42,7.33,16.72s-2.86,13.69-8.58,18.63c-5.72,4.94-13.8,7.41-24.24,7.41s-19.05-2.43-25.15-7.3c-6.11-4.87-9.16-11.56-9.16-20.07h16.33c.52,3.74,1.53,6.53,3.05,8.38,2.78,3.37,7.53,5.06,14.27,5.06Z"/>
        <path class="cls-2" d="M129.78,438.6v-50.31h17.38v50.31c0,8.7-1.36,15.47-4.05,20.32-5.04,8.89-14.64,13.33-28.82,13.33s-23.8-4.44-28.87-13.33c-2.7-4.85-4.05-11.62-4.05-20.32v-50.31h17.38v50.31c0,5.63.67,9.73,2,12.33,2.07,4.59,6.59,6.89,13.55,6.89s11.42-2.3,13.49-6.89c1.33-2.59,2-6.7,2-12.33Z"/>
        <path class="cls-2" d="M200.1,438.05h-17.66v32.1h-16.72v-81.85h40.15c5.74.11,10.15.81,13.25,2.11,3.09,1.29,5.71,3.21,7.86,5.72,1.77,2.08,3.18,4.37,4.22,6.89,1.04,2.52,1.56,5.39,1.56,8.61,0,3.89-.98,7.71-2.94,11.47-1.96,3.76-5.2,6.41-9.72,7.97,3.78,1.52,6.45,3.68,8.02,6.47,1.57,2.8,2.36,7.06,2.36,12.8v5.5c0,3.74.15,6.27.44,7.61.44,2.11,1.48,3.67,3.11,4.67v2.05h-18.83c-.52-1.82-.88-3.28-1.11-4.39-.44-2.3-.69-4.64-.72-7.05l-.11-7.6c-.08-5.22-1.03-8.7-2.86-10.44-1.83-1.74-5.26-2.61-10.3-2.61ZM210.49,423.16c3.4-1.55,5.11-4.63,5.11-9.22,0-4.96-1.65-8.29-4.94-10-1.86-.96-4.63-1.45-8.33-1.45h-19.88v21.99h19.38c3.85,0,6.74-.44,8.67-1.33Z"/>
        <path class="cls-2" d="M327.63,388.29h17.38l-23.05,81.85h-16.33l-9.88-47.87-2.89-15.83-2.89,15.83-9.88,47.87h-15.89l-23.21-81.85h18.16l10.83,46.87,2.33,13.05,2.39-12.78,9.22-47.14h18.04l9.72,46.87,2.5,13.05,2.5-12.55,10.94-47.36Z"/>
        <path class="cls-2" d="M398.77,453.32h-30.15l-5.66,16.83h-17.88l29.21-81.85h19.32l28.99,81.85h-18.55l-5.27-16.83ZM393.99,439.21l-10.22-32.21-10.55,32.21h20.76Z"/>
        <path class="cls-2" d="M463.15,458.32c4.03,0,7.31-.44,9.83-1.33,4.78-1.7,7.16-4.87,7.16-9.5,0-2.7-1.18-4.79-3.55-6.27-2.37-1.45-6.09-2.72-11.16-3.83l-8.67-1.95c-8.51-1.92-14.4-4.01-17.66-6.27-5.52-3.77-8.28-9.68-8.28-17.71,0-7.33,2.66-13.42,8-18.27,5.33-4.85,13.16-7.28,23.49-7.28,8.63,0,15.98,2.29,22.07,6.86,6.09,4.57,9.28,11.21,9.58,19.91h-16.44c-.3-4.92-2.44-8.42-6.44-10.49-2.66-1.37-5.98-2.06-9.94-2.06-4.4,0-7.92.89-10.55,2.66-2.63,1.78-3.94,4.26-3.94,7.44,0,2.93,1.3,5.11,3.89,6.55,1.67.97,5.22,2.09,10.66,3.39l14.11,3.39c6.18,1.48,10.85,3.46,13.99,5.94,4.88,3.85,7.33,9.42,7.33,16.72s-2.86,13.69-8.58,18.63c-5.72,4.94-13.8,7.41-24.24,7.41s-19.05-2.43-25.15-7.3c-6.11-4.87-9.16-11.56-9.16-20.07h16.33c.52,3.74,1.53,6.53,3.05,8.38,2.78,3.37,7.53,5.06,14.27,5.06Z"/>
        <path class="cls-2" d="M560.39,470.14v-36.54h-31.99v36.54h-16.94v-81.85h16.94v31.21h31.99v-31.21h16.99v81.85h-16.99Z"/>
      </g>
    </g>
  </g>
</svg>